<svg xmlns="http://www.w3.org/2000/svg" class="graphdiagram" viewBox="-2023.4340872552082 -766.3519803612649 2792.190562656621 1409.1836745907635"><g class="layer relationships"><g class="related-pair"><g class="relationship" transform="translate(-1214,-154.5) rotate(13.240519915187205)"><path class="relationship" d="M 107.25014208357808,-18.914621439562897 L 108.34927356164951,-10.99048678687605 A 1448.785555950364 1448.785555950364 0 0 1 467.6146782572254,-15.843603343118382 L 466.2876522289977,-3.9172039736353135 L 499.8607519185895,-16.28033372433878 L 469.82638830427163,-35.72093562559016 L 468.4993622760439,-23.794536256107094 A 1456.785555950364 1456.785555950364 0 0 0 107.25014208357808,-18.914621439562897" fill="rgb(0, 0, 0)" stroke="rgb(51, 51, 51)" stroke-width="0px"/><text class="type" text-anchor="middle" baseline-shift="30%" alignment-baseline="alphabetic" x="307.39999975168206" y="-28.729564209932732" font-size="50px" font-family="&quot;Gill Sans&quot;, &quot;Gill Sans MT&quot;, Calibri, sans-serif">author</text></g><g class="relationship" transform="translate(-1214,-154.5) rotate(13.240519915187205)"><path class="relationship" d="M 107.25014208357808,18.914621439562897 L 108.34927356164951,10.99048678687605 A 1448.785555950364 1448.785555950364 0 0 0 467.6146782572254,15.843603343118382 L 466.2876522289977,3.9172039736353135 L 499.8607519185895,16.28033372433878 L 469.82638830427163,35.72093562559016 L 468.4993622760439,23.794536256107094 A 1456.785555950364 1456.785555950364 0 0 1 107.25014208357808,18.914621439562897" fill="rgb(0, 0, 0)" stroke="rgb(51, 51, 51)" stroke-width="0px"/><text class="type" text-anchor="middle" baseline-shift="30%" alignment-baseline="alphabetic" x="307.39999975168206" y="28.729564209932732" font-size="50px" font-family="&quot;Gill Sans&quot;, &quot;Gill Sans MT&quot;, Calibri, sans-serif">editor</text></g></g><g class="related-pair"><g class="relationship" transform="translate(-585,-6.5) rotate(161.98965950816995)"><path class="relationship" d="M 147.2194218774876 4 L 499.39641995311536 4 L 499.39641995311536 16 L 531.3964199531154 0 L 499.39641995311536 -16 L 499.39641995311536 -4 L 147.2194218774876 -4 Z" fill="rgb(0, 0, 0)" stroke="rgb(51, 51, 51)" stroke-width="0px"/><text class="type" text-anchor="middle" baseline-shift="30%" alignment-baseline="alphabetic" transform="rotate(180)" x="-323.30792091530145" y="0" font-size="50px" font-family="&quot;Gill Sans&quot;, &quot;Gill Sans MT&quot;, Calibri, sans-serif">published_by</text></g></g><g class="related-pair"><g class="relationship" transform="translate(-585,-6.5) rotate(138.63215454695697)"><path class="relationship" d="M 147.2194218774876 4 L 699.7072857302471 4 L 699.7072857302471 16 L 731.7072857302471 0 L 699.7072857302471 -16 L 699.7072857302471 -4 L 147.2194218774876 -4 Z" fill="rgb(0, 0, 0)" stroke="rgb(51, 51, 51)" stroke-width="0px"/><text class="type" text-anchor="middle" baseline-shift="30%" alignment-baseline="alphabetic" transform="rotate(180)" x="-423.4633538038674" y="0" font-size="50px" font-family="&quot;Gill Sans&quot;, &quot;Gill Sans MT&quot;, Calibri, sans-serif">published_at</text></g></g><g class="related-pair"><g class="relationship" transform="translate(-789.959228515625,547.4110412597656) rotate(-69.69442146842047)"><path class="relationship" d="M 91.06197355263609 4 L 411.39528076984567 4 L 411.39528076984567 16 L 443.39528076984567 0 L 411.39528076984567 -16 L 411.39528076984567 -4 L 91.06197355263609 -4 Z" fill="rgb(0, 0, 0)" stroke="rgb(51, 51, 51)" stroke-width="0px"/><text class="type" text-anchor="middle" baseline-shift="30%" alignment-baseline="alphabetic" x="251.2286271612409" y="0" font-size="50px" font-family="&quot;Gill Sans&quot;, &quot;Gill Sans MT&quot;, Calibri, sans-serif">for</text></g></g><g class="related-pair"><g class="relationship" transform="translate(-585,547.4110412597656) rotate(-90)"><path class="relationship" d="M 75.46512003162857 4 L 374.691619382278 4 L 374.691619382278 16 L 406.691619382278 0 L 374.691619382278 -16 L 374.691619382278 -4 L 75.46512003162857 -4 Z" fill="rgb(0, 0, 0)" stroke="rgb(51, 51, 51)" stroke-width="0px"/><text class="type" text-anchor="middle" baseline-shift="30%" alignment-baseline="alphabetic" x="225.07836970695328" y="0" font-size="50px" font-family="&quot;Gill Sans&quot;, &quot;Gill Sans MT&quot;, Calibri, sans-serif">for</text></g></g><g class="related-pair"><g class="relationship" transform="translate(-360.8963623046875,547.4110412597656) rotate(-112.02747636259491)"><path class="relationship" d="M 93.155590829537 4 L 418.3087214410926 4 L 418.3087214410926 16 L 450.3087214410926 0 L 418.3087214410926 -16 L 418.3087214410926 -4 L 93.155590829537 -4 Z" fill="rgb(0, 0, 0)" stroke="rgb(51, 51, 51)" stroke-width="0px"/><text class="type" text-anchor="middle" baseline-shift="30%" alignment-baseline="alphabetic" transform="rotate(180)" x="-255.7321561353148" y="0" font-size="50px" font-family="&quot;Gill Sans&quot;, &quot;Gill Sans MT&quot;, Calibri, sans-serif">for</text></g></g><g class="related-pair"><g class="relationship" transform="translate(-585,-6.5) rotate(28.793297461132635)"><path class="relationship" d="M 147.2194218774876 4 L 494.08282651067645 4 L 494.08282651067645 16 L 526.0828265106765 0 L 494.08282651067645 -16 L 494.08282651067645 -4 L 147.2194218774876 -4 Z" fill="rgb(0, 0, 0)" stroke="rgb(51, 51, 51)" stroke-width="0px"/><text class="type" text-anchor="middle" baseline-shift="30%" alignment-baseline="alphabetic" x="320.65112419408206" y="0" font-size="50px" font-family="&quot;Gill Sans&quot;, &quot;Gill Sans MT&quot;, Calibri, sans-serif">is_part_of</text></g></g><g class="related-pair"><g class="relationship" transform="translate(-36.87646484375,-6.5) rotate(180)"><path class="relationship" d="M 84.1561171390283 4 L 368.9041132787624 4 L 368.9041132787624 16 L 400.9041132787624 0 L 368.9041132787624 -16 L 368.9041132787624 -4 L 84.1561171390283 -4 Z" fill="rgb(0, 0, 0)" stroke="rgb(51, 51, 51)" stroke-width="0px"/><text class="type" text-anchor="middle" baseline-shift="30%" alignment-baseline="alphabetic" transform="rotate(180)" x="-226.53011520889532" y="0" font-size="50px" font-family="&quot;Gill Sans&quot;, &quot;Gill Sans MT&quot;, Calibri, sans-serif">for</text></g></g><g class="related-pair"><g class="relationship" transform="translate(-36.87646484375,-281.3832702636719) rotate(153.36629216378586)"><path class="relationship" d="M 126.21096790768604 4 L 433.9691478651616 4 L 433.9691478651616 16 L 465.9691478651616 0 L 433.9691478651616 -16 L 433.9691478651616 -4 L 126.21096790768604 -4 Z" fill="rgb(0, 0, 0)" stroke="rgb(51, 51, 51)" stroke-width="0px"/><text class="type" text-anchor="middle" baseline-shift="30%" alignment-baseline="alphabetic" transform="rotate(180)" x="-280.0900578864238" y="0" font-size="50px" font-family="&quot;Gill Sans&quot;, &quot;Gill Sans MT&quot;, Calibri, sans-serif">for</text></g></g><g class="related-pair"><g class="relationship" transform="translate(-585,-568.8710021972656) rotate(90)"><path class="relationship" d="M 208.48097816399923 4 L 383.151580319778 4 L 383.151580319778 16 L 415.151580319778 0 L 383.151580319778 -16 L 383.151580319778 -4 L 208.48097816399923 -4 Z" fill="rgb(0, 0, 0)" stroke="rgb(51, 51, 51)" stroke-width="0px"/><text class="type" text-anchor="middle" baseline-shift="30%" alignment-baseline="alphabetic" x="295.81627924188865" y="0" font-size="50px" font-family="&quot;Gill Sans&quot;, &quot;Gill Sans MT&quot;, Calibri, sans-serif">for</text></g></g></g><g class="layer nodes"><circle class="node node-id-0" r="93.83177790126219" fill="rgb(255, 255, 255)" stroke="rgb(0, 0, 0)" stroke-width="8px" cx="-1214" cy="-154.5"/><g class="caption"><text class="caption node" text-anchor="middle" alignment-baseline="central" x="-1214" y="-154.5" fill="rgb(51, 51, 51)" font-size="50px" font-family="&quot;Gill Sans&quot;, &quot;Gill Sans MT&quot;, Calibri, sans-serif">Person</text></g><circle class="node node-id-1" r="132.2194218774876" fill="rgb(255, 255, 255)" stroke="rgb(0, 0, 0)" stroke-width="8px" cx="-585" cy="-6.5"/><g class="caption"><text class="caption node" text-anchor="middle" alignment-baseline="central" x="-585" y="-6.5" fill="rgb(51, 51, 51)" font-size="50px" font-family="&quot;Gill Sans&quot;, &quot;Gill Sans MT&quot;, Calibri, sans-serif">Publication</text></g><circle class="node node-id-2" r="115.01211491773132" fill="rgb(255, 255, 255)" stroke="rgb(0, 0, 0)" stroke-width="8px" cx="-1214" cy="198"/><g class="caption"><text class="caption node" text-anchor="middle" alignment-baseline="central" x="-1214" y="198" fill="rgb(51, 51, 51)" font-size="50px" font-family="&quot;Gill Sans&quot;, &quot;Gill Sans MT&quot;, Calibri, sans-serif">Publisher</text></g><circle class="node node-id-3" r="91.42065296973301" fill="rgb(255, 255, 255)" stroke="rgb(0, 0, 0)" stroke-width="8px" cx="-1214" cy="547.4110412597656"/><g class="caption"><text class="caption node" text-anchor="middle" alignment-baseline="central" x="-1214" y="547.4110412597656" fill="rgb(51, 51, 51)" font-size="50px" font-family="&quot;Gill Sans&quot;, &quot;Gill Sans MT&quot;, Calibri, sans-serif">School</text></g><circle class="node node-id-4" r="76.06197355263609" fill="rgb(255, 255, 255)" stroke="rgb(0, 0, 0)" stroke-width="8px" cx="-789.959228515625" cy="547.4110412597656"/><g class="caption"><text class="caption node" text-anchor="middle" alignment-baseline="central" x="-789.959228515625" y="547.4110412597656" fill="rgb(51, 51, 51)" font-size="50px" font-family="&quot;Gill Sans&quot;, &quot;Gill Sans MT&quot;, Calibri, sans-serif">ISBN</text></g><circle class="node node-id-5" r="60.46512003162858" fill="rgb(255, 255, 255)" stroke="rgb(0, 0, 0)" stroke-width="8px" cx="-585" cy="547.4110412597656"/><g class="caption"><text class="caption node" text-anchor="middle" alignment-baseline="central" x="-585" y="547.4110412597656" fill="rgb(51, 51, 51)" font-size="50px" font-family="&quot;Gill Sans&quot;, &quot;Gill Sans MT&quot;, Calibri, sans-serif">Url</text></g><circle class="node node-id-6" r="78.155590829537" fill="rgb(255, 255, 255)" stroke="rgb(0, 0, 0)" stroke-width="8px" cx="-360.8963623046875" cy="547.4110412597656"/><g class="caption"><text class="caption node" text-anchor="middle" alignment-baseline="central" x="-360.8963623046875" y="547.4110412597656" fill="rgb(51, 51, 51)" font-size="50px" font-family="&quot;Gill Sans&quot;, &quot;Gill Sans MT&quot;, Calibri, sans-serif">Note</text></g><circle class="node node-id-7" r="84.36977273673656" fill="rgb(255, 255, 255)" stroke="rgb(0, 0, 0)" stroke-width="8px" cx="-36.87646484375" cy="294.7499694824219"/><g class="caption"><text class="caption node" text-anchor="middle" alignment-baseline="central" x="-36.87646484375" y="294.7499694824219" fill="rgb(51, 51, 51)" font-size="50px" font-family="&quot;Gill Sans&quot;, &quot;Gill Sans MT&quot;, Calibri, sans-serif">Series</text></g><circle class="node node-id-8" r="69.1561171390283" fill="rgb(255, 255, 255)" stroke="rgb(0, 0, 0)" stroke-width="8px" cx="-36.87646484375" cy="-6.5"/><g class="caption"><text class="caption node" text-anchor="middle" alignment-baseline="central" x="-36.87646484375" y="-6.5" fill="rgb(51, 51, 51)" font-size="50px" font-family="&quot;Gill Sans&quot;, &quot;Gill Sans MT&quot;, Calibri, sans-serif">Cite</text></g><circle class="node node-id-9" r="111.21096790768604" fill="rgb(255, 255, 255)" stroke="rgb(0, 0, 0)" stroke-width="8px" cx="-36.87646484375" cy="-281.3832702636719"/><g class="caption"><text class="caption node" text-anchor="middle" alignment-baseline="central" x="-36.87646484375" y="-281.3832702636719" fill="rgb(51, 51, 51)" font-size="50px" font-family="&quot;Gill Sans&quot;, &quot;Gill Sans MT&quot;, Calibri, sans-serif">Crossref</text></g><circle class="node node-id-10" r="193.48097816399923" fill="rgb(255, 255, 255)" stroke="rgb(0, 0, 0)" stroke-width="8px" cx="-585" cy="-568.8710021972656"/><g class="caption"><text class="caption node" text-anchor="middle" alignment-baseline="central" x="-585" y="-568.8710021972656" fill="rgb(51, 51, 51)" font-size="50px" font-family="&quot;Gill Sans&quot;, &quot;Gill Sans MT&quot;, Calibri, sans-serif">ElectronicEdition</text></g></g><g class="layer properties"/><g class="layer overlay"><circle class="node overlay" r="97.83177790126219" stroke="none" fill="rgba(255, 255, 255, 0)" cx="-1214" cy="-154.5"/><circle class="node ring" r="102.83177790126219" fill="none" stroke="rgba(255, 255, 255, 0)" stroke-width="10px" cx="-1214" cy="-154.5"/><circle class="node overlay" r="136.2194218774876" stroke="none" fill="rgba(255, 255, 255, 0)" cx="-585" cy="-6.5"/><circle class="node ring" r="141.2194218774876" fill="none" stroke="rgba(255, 255, 255, 0)" stroke-width="10px" cx="-585" cy="-6.5"/><path class="relationship overlay" fill="rgba(255, 255, 255, 0)" stroke="rgba(255, 255, 255, 0)" stroke-width="10px" transform="translate(-1214,-154.5) rotate(13.240519915187205)" d="M 107.25014208357808,-18.914621439562897 L 108.34927356164951,-10.99048678687605 A 1448.785555950364 1448.785555950364 0 0 1 467.6146782572254,-15.843603343118382 L 466.2876522289977,-3.9172039736353135 L 499.8607519185895,-16.28033372433878 L 469.82638830427163,-35.72093562559016 L 468.4993622760439,-23.794536256107094 A 1456.785555950364 1456.785555950364 0 0 0 107.25014208357808,-18.914621439562897"/><path class="relationship overlay" fill="rgba(255, 255, 255, 0)" stroke="rgba(255, 255, 255, 0)" stroke-width="10px" transform="translate(-1214,-154.5) rotate(13.240519915187205)" d="M 107.25014208357808,18.914621439562897 L 108.34927356164951,10.99048678687605 A 1448.785555950364 1448.785555950364 0 0 0 467.6146782572254,15.843603343118382 L 466.2876522289977,3.9172039736353135 L 499.8607519185895,16.28033372433878 L 469.82638830427163,35.72093562559016 L 468.4993622760439,23.794536256107094 A 1456.785555950364 1456.785555950364 0 0 1 107.25014208357808,18.914621439562897"/><circle class="node overlay" r="119.01211491773132" stroke="none" fill="rgba(255, 255, 255, 0)" cx="-1214" cy="198"/><circle class="node ring" r="124.01211491773132" fill="none" stroke="rgba(255, 255, 255, 0)" stroke-width="10px" cx="-1214" cy="198"/><path class="relationship overlay" fill="rgba(255, 255, 255, 0)" stroke="rgba(255, 255, 255, 0)" stroke-width="10px" transform="translate(-585,-6.5) rotate(161.98965950816995)" d="M 147.2194218774876 4 L 499.39641995311536 4 L 499.39641995311536 16 L 531.3964199531154 0 L 499.39641995311536 -16 L 499.39641995311536 -4 L 147.2194218774876 -4 Z"/><circle class="node overlay" r="95.42065296973301" stroke="none" fill="rgba(255, 255, 255, 0)" cx="-1214" cy="547.4110412597656"/><circle class="node ring" r="100.42065296973301" fill="none" stroke="rgba(255, 255, 255, 0)" stroke-width="10px" cx="-1214" cy="547.4110412597656"/><path class="relationship overlay" fill="rgba(255, 255, 255, 0)" stroke="rgba(255, 255, 255, 0)" stroke-width="10px" transform="translate(-585,-6.5) rotate(138.63215454695697)" d="M 147.2194218774876 4 L 699.7072857302471 4 L 699.7072857302471 16 L 731.7072857302471 0 L 699.7072857302471 -16 L 699.7072857302471 -4 L 147.2194218774876 -4 Z"/><circle class="node overlay" r="80.06197355263609" stroke="none" fill="rgba(255, 255, 255, 0)" cx="-789.959228515625" cy="547.4110412597656"/><circle class="node ring" r="85.06197355263609" fill="none" stroke="rgba(255, 255, 255, 0)" stroke-width="10px" cx="-789.959228515625" cy="547.4110412597656"/><path class="relationship overlay" fill="rgba(255, 255, 255, 0)" stroke="rgba(255, 255, 255, 0)" stroke-width="10px" transform="translate(-789.959228515625,547.4110412597656) rotate(-69.69442146842047)" d="M 91.06197355263609 4 L 411.39528076984567 4 L 411.39528076984567 16 L 443.39528076984567 0 L 411.39528076984567 -16 L 411.39528076984567 -4 L 91.06197355263609 -4 Z"/><circle class="node overlay" r="64.46512003162857" stroke="none" fill="rgba(255, 255, 255, 0)" cx="-585" cy="547.4110412597656"/><circle class="node ring" r="69.46512003162857" fill="none" stroke="rgba(255, 255, 255, 0)" stroke-width="10px" cx="-585" cy="547.4110412597656"/><path class="relationship overlay" fill="rgba(255, 255, 255, 0)" stroke="rgba(255, 255, 255, 0)" stroke-width="10px" transform="translate(-585,547.4110412597656) rotate(-90)" d="M 75.46512003162857 4 L 374.691619382278 4 L 374.691619382278 16 L 406.691619382278 0 L 374.691619382278 -16 L 374.691619382278 -4 L 75.46512003162857 -4 Z"/><circle class="node overlay" r="82.155590829537" stroke="none" fill="rgba(255, 255, 255, 0)" cx="-360.8963623046875" cy="547.4110412597656"/><circle class="node ring" r="87.155590829537" fill="none" stroke="rgba(255, 255, 255, 0)" stroke-width="10px" cx="-360.8963623046875" cy="547.4110412597656"/><path class="relationship overlay" fill="rgba(255, 255, 255, 0)" stroke="rgba(255, 255, 255, 0)" stroke-width="10px" transform="translate(-360.8963623046875,547.4110412597656) rotate(-112.02747636259491)" d="M 93.155590829537 4 L 418.3087214410926 4 L 418.3087214410926 16 L 450.3087214410926 0 L 418.3087214410926 -16 L 418.3087214410926 -4 L 93.155590829537 -4 Z"/><circle class="node overlay" r="88.36977273673656" stroke="none" fill="rgba(255, 255, 255, 0)" cx="-36.87646484375" cy="294.7499694824219"/><circle class="node ring" r="93.36977273673656" fill="none" stroke="rgba(255, 255, 255, 0)" stroke-width="10px" cx="-36.87646484375" cy="294.7499694824219"/><path class="relationship overlay" fill="rgba(255, 255, 255, 0)" stroke="rgba(255, 255, 255, 0)" stroke-width="10px" transform="translate(-585,-6.5) rotate(28.793297461132635)" d="M 147.2194218774876 4 L 494.08282651067645 4 L 494.08282651067645 16 L 526.0828265106765 0 L 494.08282651067645 -16 L 494.08282651067645 -4 L 147.2194218774876 -4 Z"/><circle class="node overlay" r="73.1561171390283" stroke="none" fill="rgba(255, 255, 255, 0)" cx="-36.87646484375" cy="-6.5"/><circle class="node ring" r="78.1561171390283" fill="none" stroke="rgba(255, 255, 255, 0)" stroke-width="10px" cx="-36.87646484375" cy="-6.5"/><path class="relationship overlay" fill="rgba(255, 255, 255, 0)" stroke="rgba(255, 255, 255, 0)" stroke-width="10px" transform="translate(-36.87646484375,-6.5) rotate(180)" d="M 84.1561171390283 4 L 368.9041132787624 4 L 368.9041132787624 16 L 400.9041132787624 0 L 368.9041132787624 -16 L 368.9041132787624 -4 L 84.1561171390283 -4 Z"/><circle class="node overlay" r="115.21096790768604" stroke="none" fill="rgba(255, 255, 255, 0)" cx="-36.87646484375" cy="-281.3832702636719"/><circle class="node ring" r="120.21096790768604" fill="none" stroke="rgba(255, 255, 255, 0)" stroke-width="10px" cx="-36.87646484375" cy="-281.3832702636719"/><path class="relationship overlay" fill="rgba(255, 255, 255, 0)" stroke="rgba(255, 255, 255, 0)" stroke-width="10px" transform="translate(-36.87646484375,-281.3832702636719) rotate(153.36629216378586)" d="M 126.21096790768604 4 L 433.9691478651616 4 L 433.9691478651616 16 L 465.9691478651616 0 L 433.9691478651616 -16 L 433.9691478651616 -4 L 126.21096790768604 -4 Z"/><circle class="node overlay" r="197.48097816399923" stroke="none" fill="rgba(255, 255, 255, 0)" cx="-585" cy="-568.8710021972656"/><circle class="node ring" r="202.48097816399923" fill="none" stroke="rgba(255, 255, 255, 0)" stroke-width="10px" cx="-585" cy="-568.8710021972656"/><path class="relationship overlay" fill="rgba(255, 255, 255, 0)" stroke="rgba(255, 255, 255, 0)" stroke-width="10px" transform="translate(-585,-568.8710021972656) rotate(90)" d="M 208.48097816399923 4 L 383.151580319778 4 L 383.151580319778 16 L 415.151580319778 0 L 383.151580319778 -16 L 383.151580319778 -4 L 208.48097816399923 -4 Z"/></g></svg>